<mxfile host="app.diagrams.net" modified="2022-03-02T23:30:34.916Z" agent="5.0 (Windows NT 10.0; Win64; x64) AppleWebKit/537.36 (KHTML, like Gecko) Chrome/98.0.4758.102 Safari/537.36 Edg/98.0.1108.56" etag="A1WnknTuvCCkwsaT6INH" version="16.6.5" type="github">
  <diagram id="YBtFwAscdo08CZJi-MoD" name="Page-1">
    <mxGraphModel dx="782" dy="514" grid="1" gridSize="10" guides="1" tooltips="1" connect="1" arrows="1" fold="1" page="1" pageScale="1" pageWidth="827" pageHeight="1169" math="0" shadow="0">
      <root>
        <mxCell id="0" />
        <mxCell id="1" parent="0" />
        <mxCell id="qbRGJEj6vLRrttc0thFU-4" value="" style="edgeStyle=orthogonalEdgeStyle;rounded=0;orthogonalLoop=1;jettySize=auto;html=1;" edge="1" parent="1" source="qbRGJEj6vLRrttc0thFU-1" target="qbRGJEj6vLRrttc0thFU-3">
          <mxGeometry relative="1" as="geometry" />
        </mxCell>
        <mxCell id="qbRGJEj6vLRrttc0thFU-1" value="" style="rounded=0;whiteSpace=wrap;html=1;" vertex="1" parent="1">
          <mxGeometry x="180" y="160" width="130" height="60" as="geometry" />
        </mxCell>
        <mxCell id="qbRGJEj6vLRrttc0thFU-6" value="" style="edgeStyle=orthogonalEdgeStyle;rounded=0;orthogonalLoop=1;jettySize=auto;html=1;" edge="1" parent="1" source="qbRGJEj6vLRrttc0thFU-3" target="qbRGJEj6vLRrttc0thFU-5">
          <mxGeometry relative="1" as="geometry" />
        </mxCell>
        <mxCell id="qbRGJEj6vLRrttc0thFU-3" value="" style="rounded=0;whiteSpace=wrap;html=1;" vertex="1" parent="1">
          <mxGeometry x="390" y="160" width="130" height="60" as="geometry" />
        </mxCell>
        <mxCell id="qbRGJEj6vLRrttc0thFU-5" value="" style="rounded=0;whiteSpace=wrap;html=1;" vertex="1" parent="1">
          <mxGeometry x="390" y="320" width="130" height="60" as="geometry" />
        </mxCell>
      </root>
    </mxGraphModel>
  </diagram>
</mxfile>
